<svg width="106" height="130" viewBox="0 0 106 130" fill="none" xmlns="http://www.w3.org/2000/svg">
<path fill-rule="evenodd" clip-rule="evenodd" d="M17.2011 2H88.8636C97.2589 2 104.065 8.80577 104.065 17.2011V112.751C104.065 121.146 97.2589 127.952 88.8636 127.952H17.2011C8.80577 127.952 2 121.146 2 112.751V17.2011C2 8.80578 8.80578 2 17.2011 2ZM17.2011 4.17159C10.0051 4.17159 4.17159 10.0051 4.17159 17.2011V112.751C4.17159 119.947 10.0051 125.781 17.2011 125.781H88.8636C96.0596 125.781 101.893 119.947 101.893 112.751V17.2011C101.893 10.0051 96.0596 4.17159 88.8636 4.17159H17.2011Z" fill="url(#paint0_linear_4_17)"/>
<path d="M21 30.5L43 63M21 63L44 30.5M62.5 30.5L84.5 63M62.5 63L85.5 30.5M21 103.5C46.175 91.3161 60.2925 92.3682 85.5 103.5M88.8636 2H17.2011C8.80578 2 2 8.80578 2 17.2011V112.751C2 121.146 8.80577 127.952 17.2011 127.952H88.8636C97.2589 127.952 104.065 121.146 104.065 112.751V17.2011C104.065 8.80577 97.2589 2 88.8636 2ZM4.17159 17.2011C4.17159 10.0051 10.0051 4.17159 17.2011 4.17159H88.8636C96.0596 4.17159 101.893 10.0051 101.893 17.2011V112.751C101.893 119.947 96.0596 125.781 88.8636 125.781H17.2011C10.0051 125.781 4.17159 119.947 4.17159 112.751V17.2011Z" stroke="url(#paint1_linear_4_17)" stroke-width="3"/>
<defs>
<linearGradient id="paint0_linear_4_17" x1="51.0323" y1="2" x2="51.0323" y2="127.952" gradientUnits="userSpaceOnUse">
<stop stop-color="#4285F4"/>
<stop offset="0.364" stop-color="#34A853"/>
<stop offset="0.644" stop-color="#FBBC05"/>
<stop offset="1" stop-color="#EA4335"/>
</linearGradient>
<linearGradient id="paint1_linear_4_17" x1="51.0323" y1="2" x2="51.0323" y2="127.952" gradientUnits="userSpaceOnUse">
<stop stop-color="#4285F4"/>
<stop offset="0.364" stop-color="#34A853"/>
<stop offset="0.644" stop-color="#FBBC05"/>
<stop offset="1" stop-color="#EA4335"/>
</linearGradient>
</defs>
</svg>
