<svg width="270" height="270" viewBox="0 0 270 270" fill="none" xmlns="http://www.w3.org/2000/svg">
<circle cx="135" cy="135" r="135" fill="white"/>
<mask id="path-2-outside-1_1_129" maskUnits="userSpaceOnUse" x="44.2348" y="32.322" width="182.428" height="204.986" fill="black">
<rect fill="white" x="44.2348" y="32.322" width="182.428" height="204.986"/>
<path fill-rule="evenodd" clip-rule="evenodd" d="M111.218 41.2718L203.319 66.1247C214.109 69.0363 220.495 80.1434 217.584 90.9333L184.447 213.735C181.535 224.525 170.428 230.912 159.638 228L67.5367 203.147C56.7469 200.236 50.3603 189.128 53.2718 178.339L86.4091 55.5367C89.3206 44.7469 100.428 38.3603 111.218 41.2718ZM110.464 44.0628C101.216 41.5672 91.6956 47.0414 89.2 56.2898L56.0628 179.092C53.5672 188.34 59.0414 197.861 68.2898 200.356L160.391 225.209C169.64 227.705 179.16 222.231 181.656 212.982L214.793 90.1801C217.289 80.9317 211.814 71.4113 202.566 68.9157L110.464 44.0628Z"/>
<path d="M108.139 74.874C108.347 74.1033 109.14 73.6472 109.911 73.8551L189.453 95.319C190.224 95.527 190.68 96.3203 190.472 97.091C190.264 97.8617 189.47 98.3179 188.7 98.11L109.158 76.6461C108.387 76.4381 107.931 75.6447 108.139 74.874Z"/>
<path d="M104.373 88.8288C104.581 88.0581 105.374 87.6019 106.145 87.8099L185.687 109.274C186.458 109.482 186.914 110.275 186.706 111.046C186.498 111.817 185.705 112.273 184.934 112.065L105.392 90.6008C104.621 90.3929 104.165 89.5995 104.373 88.8288Z"/>
<path d="M100.607 102.784C100.815 102.013 101.609 101.557 102.379 101.765L181.922 123.229C182.692 123.437 183.149 124.23 182.941 125.001C182.733 125.771 181.939 126.227 181.169 126.02L101.626 104.556C100.856 104.348 100.399 103.554 100.607 102.784Z"/>
<path d="M96.8418 116.738C97.0498 115.968 97.8432 115.511 98.6139 115.719L178.156 137.183C178.927 137.391 179.383 138.185 179.175 138.955C178.967 139.726 178.174 140.182 177.403 139.974L97.8607 118.51C97.09 118.302 96.6339 117.509 96.8418 116.738Z"/>
<path d="M93.0762 130.693C93.2842 129.922 94.0776 129.466 94.8483 129.674L174.39 151.138C175.161 151.346 175.617 152.139 175.409 152.91C175.201 153.681 174.408 154.137 173.637 153.929L94.0952 132.465C93.3245 132.257 92.8683 131.464 93.0762 130.693Z"/>
<path d="M89.3106 144.648C89.5186 143.877 90.312 143.421 91.0827 143.629L170.625 165.093C171.396 165.301 171.852 166.094 171.644 166.865C171.436 167.636 170.642 168.092 169.872 167.884L90.3296 146.42C89.5589 146.212 89.1027 145.419 89.3106 144.648Z"/>
<path d="M85.545 158.603C85.753 157.832 86.5464 157.376 87.3171 157.584L166.859 179.048C167.63 179.256 168.086 180.049 167.878 180.82C167.67 181.59 166.877 182.047 166.106 181.839L86.564 160.375C85.7933 160.167 85.3371 159.373 85.545 158.603Z"/>
<path d="M81.7795 172.557C81.9874 171.787 82.7808 171.331 83.5515 171.539L163.094 193.002C163.864 193.21 164.321 194.004 164.113 194.774C163.905 195.545 163.111 196.001 162.341 195.793L82.7984 174.329C82.0277 174.122 81.5715 173.328 81.7795 172.557Z"/>
</mask>
<path fill-rule="evenodd" clip-rule="evenodd" d="M111.218 41.2718L203.319 66.1247C214.109 69.0363 220.495 80.1434 217.584 90.9333L184.447 213.735C181.535 224.525 170.428 230.912 159.638 228L67.5367 203.147C56.7469 200.236 50.3603 189.128 53.2718 178.339L86.4091 55.5367C89.3206 44.7469 100.428 38.3603 111.218 41.2718ZM110.464 44.0628C101.216 41.5672 91.6956 47.0414 89.2 56.2898L56.0628 179.092C53.5672 188.34 59.0414 197.861 68.2898 200.356L160.391 225.209C169.64 227.705 179.16 222.231 181.656 212.982L214.793 90.1801C217.289 80.9317 211.814 71.4113 202.566 68.9157L110.464 44.0628Z" fill="url(#paint0_linear_1_129)"/>
<path d="M108.139 74.874C108.347 74.1033 109.14 73.6472 109.911 73.8551L189.453 95.319C190.224 95.527 190.68 96.3203 190.472 97.091C190.264 97.8617 189.47 98.3179 188.7 98.11L109.158 76.6461C108.387 76.4381 107.931 75.6447 108.139 74.874Z" fill="url(#paint1_linear_1_129)"/>
<path d="M104.373 88.8288C104.581 88.0581 105.374 87.6019 106.145 87.8099L185.687 109.274C186.458 109.482 186.914 110.275 186.706 111.046C186.498 111.817 185.705 112.273 184.934 112.065L105.392 90.6008C104.621 90.3929 104.165 89.5995 104.373 88.8288Z" fill="url(#paint2_linear_1_129)"/>
<path d="M100.607 102.784C100.815 102.013 101.609 101.557 102.379 101.765L181.922 123.229C182.692 123.437 183.149 124.23 182.941 125.001C182.733 125.771 181.939 126.227 181.169 126.02L101.626 104.556C100.856 104.348 100.399 103.554 100.607 102.784Z" fill="url(#paint3_linear_1_129)"/>
<path d="M96.8418 116.738C97.0498 115.968 97.8432 115.511 98.6139 115.719L178.156 137.183C178.927 137.391 179.383 138.185 179.175 138.955C178.967 139.726 178.174 140.182 177.403 139.974L97.8607 118.51C97.09 118.302 96.6339 117.509 96.8418 116.738Z" fill="url(#paint4_linear_1_129)"/>
<path d="M93.0762 130.693C93.2842 129.922 94.0776 129.466 94.8483 129.674L174.39 151.138C175.161 151.346 175.617 152.139 175.409 152.91C175.201 153.681 174.408 154.137 173.637 153.929L94.0952 132.465C93.3245 132.257 92.8683 131.464 93.0762 130.693Z" fill="url(#paint5_linear_1_129)"/>
<path d="M89.3106 144.648C89.5186 143.877 90.312 143.421 91.0827 143.629L170.625 165.093C171.396 165.301 171.852 166.094 171.644 166.865C171.436 167.636 170.642 168.092 169.872 167.884L90.3296 146.42C89.5589 146.212 89.1027 145.419 89.3106 144.648Z" fill="url(#paint6_linear_1_129)"/>
<path d="M85.545 158.603C85.753 157.832 86.5464 157.376 87.3171 157.584L166.859 179.048C167.63 179.256 168.086 180.049 167.878 180.82C167.67 181.59 166.877 182.047 166.106 181.839L86.564 160.375C85.7933 160.167 85.3371 159.373 85.545 158.603Z" fill="url(#paint7_linear_1_129)"/>
<path d="M81.7795 172.557C81.9874 171.787 82.7808 171.331 83.5515 171.539L163.094 193.002C163.864 193.21 164.321 194.004 164.113 194.774C163.905 195.545 163.111 196.001 162.341 195.793L82.7984 174.329C82.0277 174.122 81.5715 173.328 81.7795 172.557Z" fill="url(#paint8_linear_1_129)"/>
<path d="M86.4091 55.5367L83.5126 54.7551L86.4091 55.5367ZM56.0628 179.092L53.1664 178.31L56.0628 179.092ZM109.158 76.6461L109.939 73.7497L109.158 76.6461ZM188.7 98.11L187.918 101.006L188.7 98.11ZM189.453 95.319L188.671 98.2154L189.453 95.319ZM109.911 73.8551L110.692 70.9587L109.911 73.8551ZM101.626 104.556L100.845 107.452L101.626 104.556ZM181.169 126.02L181.95 123.123L181.169 126.02ZM181.922 123.229L181.14 126.125L181.922 123.229ZM102.379 101.765L103.161 98.8683L102.379 101.765ZM97.8607 118.51L98.6423 115.614L97.8607 118.51ZM177.403 139.974L176.621 142.871L177.403 139.974ZM178.156 137.183L177.374 140.08L178.156 137.183ZM98.6139 115.719L99.3954 112.823L98.6139 115.719ZM90.3296 146.42L91.1111 143.524L90.3296 146.42ZM169.872 167.884L169.09 170.78L169.872 167.884ZM170.625 165.093L169.843 167.989L170.625 165.093ZM91.0827 143.629L91.8643 140.733L91.0827 143.629ZM204.101 63.2283L111.999 38.3754L110.436 44.1682L202.537 69.0211L204.101 63.2283ZM220.48 91.7148C223.824 79.3254 216.49 66.5715 204.101 63.2283L202.537 69.0211C211.728 71.5011 217.167 80.9615 214.688 90.1517L220.48 91.7148ZM187.343 214.517L220.48 91.7148L214.688 90.1517L181.55 212.954L187.343 214.517ZM158.857 230.896C171.246 234.24 184 226.906 187.343 214.517L181.55 212.954C179.07 222.144 169.61 227.584 160.42 225.104L158.857 230.896ZM66.7551 206.044L158.857 230.896L160.42 225.104L68.3183 200.251L66.7551 206.044ZM50.3754 177.557C47.0322 189.947 54.3657 202.7 66.7551 206.044L68.3183 200.251C59.1281 197.771 53.6883 188.31 56.1682 179.12L50.3754 177.557ZM83.5126 54.7551L50.3754 177.557L56.1682 179.12L89.3055 56.3183L83.5126 54.7551ZM111.999 38.3754C99.6097 35.0322 86.8559 42.3657 83.5126 54.7551L89.3055 56.3183C91.7854 47.1281 101.246 41.6883 110.436 44.1682L111.999 38.3754ZM92.0964 57.0714C94.1604 49.4226 102.034 44.8952 109.683 46.9592L111.246 41.1664C100.398 38.2391 89.2309 44.6602 86.3036 55.5082L92.0964 57.0714ZM58.9592 179.873L92.0964 57.0714L86.3036 55.5082L53.1664 178.31L58.9592 179.873ZM69.0714 197.46C61.4226 195.396 56.8952 187.522 58.9592 179.873L53.1664 178.31C50.2391 189.158 56.6602 200.325 67.5082 203.253L69.0714 197.46ZM161.173 222.313L69.0714 197.46L67.5082 203.253L159.61 228.106L161.173 222.313ZM178.759 212.201C176.695 219.849 168.822 224.377 161.173 222.313L159.61 228.106C170.458 231.033 181.625 224.612 184.552 213.764L178.759 212.201ZM211.897 89.3986L178.759 212.201L184.552 213.764L217.689 90.9617L211.897 89.3986ZM201.784 71.8121C209.433 73.8761 213.961 81.7498 211.897 89.3986L217.689 90.9617C220.617 80.1137 214.196 68.9466 203.348 66.0193L201.784 71.8121ZM109.683 46.9592L201.784 71.8121L203.348 66.0193L111.246 41.1664L109.683 46.9592ZM109.129 76.7515L188.671 98.2154L190.234 92.4226L110.692 70.9587L109.129 76.7515ZM189.481 95.2136L109.939 73.7497L108.376 79.5425L187.918 101.006L189.481 95.2136ZM109.939 73.7497C110.768 73.9734 111.259 74.8267 111.035 75.6556L105.242 74.0925C104.603 76.4628 106.006 78.9029 108.376 79.5425L109.939 73.7497ZM187.575 96.3095C187.799 95.4805 188.652 94.9899 189.481 95.2136L187.918 101.006C190.288 101.646 192.729 100.243 193.368 97.8726L187.575 96.3095ZM188.671 98.2154C187.842 97.9917 187.352 97.1384 187.575 96.3095L193.368 97.8726C194.008 95.5023 192.605 93.0622 190.234 92.4226L188.671 98.2154ZM110.692 70.9587C108.322 70.3191 105.882 71.7221 105.242 74.0925L111.035 75.6556C110.811 76.4846 109.958 76.9752 109.129 76.7515L110.692 70.9587ZM105.363 90.7063L184.906 112.17L186.469 106.377L106.927 84.9135L105.363 90.7063ZM185.716 109.168L106.174 87.7044L104.61 93.4973L184.153 114.961L185.716 109.168ZM106.174 87.7044C107.002 87.9281 107.493 88.7814 107.269 89.6104L101.477 88.0472C100.837 90.4176 102.24 92.8576 104.61 93.4973L106.174 87.7044ZM183.81 110.264C184.033 109.435 184.887 108.945 185.716 109.168L184.153 114.961C186.523 115.601 188.963 114.198 189.603 111.827L183.81 110.264ZM184.906 112.17C184.077 111.946 183.586 111.093 183.81 110.264L189.603 111.827C190.242 109.457 188.839 107.017 186.469 106.377L184.906 112.17ZM106.927 84.9135C104.556 84.2739 102.116 85.6769 101.477 88.0472L107.269 89.6104C107.046 90.4393 106.192 90.93 105.363 90.7063L106.927 84.9135ZM101.598 104.661L181.14 126.125L182.703 120.332L103.161 98.8683L101.598 104.661ZM181.95 123.123L102.408 101.659L100.845 107.452L180.387 128.916L181.95 123.123ZM102.408 101.659C103.237 101.883 103.728 102.736 103.504 103.565L97.711 102.002C97.0714 104.372 98.4744 106.812 100.845 107.452L102.408 101.659ZM180.044 124.219C180.268 123.39 181.121 122.899 181.95 123.123L180.387 128.916C182.757 129.556 185.197 128.152 185.837 125.782L180.044 124.219ZM181.14 126.125C180.311 125.901 179.82 125.048 180.044 124.219L185.837 125.782C186.477 123.412 185.074 120.972 182.703 120.332L181.14 126.125ZM103.161 98.8683C100.791 98.2286 98.3506 99.6317 97.711 102.002L103.504 103.565C103.28 104.394 102.427 104.885 101.598 104.661L103.161 98.8683ZM97.8323 118.616L177.374 140.08L178.938 134.287L99.3954 112.823L97.8323 118.616ZM178.185 137.078L98.6423 115.614L97.0792 121.407L176.621 142.871L178.185 137.078ZM98.6423 115.614C99.4713 115.838 99.9619 116.691 99.7382 117.52L93.9454 115.957C93.3058 118.327 94.7088 120.767 97.0792 121.407L98.6423 115.614ZM176.279 138.174C176.502 137.345 177.356 136.854 178.185 137.078L176.621 142.871C178.992 143.51 181.432 142.107 182.071 139.737L176.279 138.174ZM177.374 140.08C176.546 139.856 176.055 139.003 176.279 138.174L182.071 139.737C182.711 137.367 181.308 134.927 178.938 134.287L177.374 140.08ZM99.3954 112.823C97.0251 112.183 94.585 113.586 93.9454 115.957L99.7382 117.52C99.5145 118.349 98.6612 118.84 97.8323 118.616L99.3954 112.823ZM94.0667 132.571L173.609 154.034L175.172 148.242L95.6298 126.778L94.0667 132.571ZM174.419 151.033L94.8767 129.569L93.3136 135.362L172.856 156.825L174.419 151.033ZM94.8767 129.569C95.7057 129.792 96.1963 130.646 95.9726 131.475L90.1798 129.912C89.5402 132.282 90.9433 134.722 93.3136 135.362L94.8767 129.569ZM172.513 152.129C172.737 151.3 173.59 150.809 174.419 151.033L172.856 156.825C175.226 157.465 177.666 156.062 178.306 153.692L172.513 152.129ZM173.609 154.034C172.78 153.811 172.289 152.957 172.513 152.129L178.306 153.692C178.945 151.321 177.542 148.881 175.172 148.242L173.609 154.034ZM95.6298 126.778C93.2595 126.138 90.8195 127.541 90.1798 129.912L95.9726 131.475C95.749 132.304 94.8956 132.794 94.0667 132.571L95.6298 126.778ZM90.3011 146.525L169.843 167.989L171.406 162.196L91.8643 140.733L90.3011 146.525ZM170.653 164.987L91.1111 143.524L89.548 149.316L169.09 170.78L170.653 164.987ZM91.1111 143.524C91.9401 143.747 92.4307 144.601 92.207 145.429L86.4142 143.866C85.7746 146.237 87.1777 148.677 89.548 149.316L91.1111 143.524ZM168.747 166.083C168.971 165.254 169.824 164.764 170.653 164.987L169.09 170.78C171.461 171.42 173.901 170.017 174.54 167.646L168.747 166.083ZM169.843 167.989C169.014 167.766 168.524 166.912 168.747 166.083L174.54 167.646C175.18 165.276 173.777 162.836 171.406 162.196L169.843 167.989ZM91.8643 140.733C89.4939 140.093 87.0539 141.496 86.4142 143.866L92.207 145.429C91.9834 146.258 91.13 146.749 90.3011 146.525L91.8643 140.733ZM86.5355 160.48L166.078 181.944L167.641 176.151L88.0987 154.687L86.5355 160.48ZM166.888 178.942L87.3455 157.478L85.7824 163.271L165.325 184.735L166.888 178.942ZM87.3455 157.478C88.1745 157.702 88.6651 158.555 88.4414 159.384L82.6486 157.821C82.009 160.191 83.4121 162.631 85.7824 163.271L87.3455 157.478ZM164.982 180.038C165.205 179.209 166.059 178.718 166.888 178.942L165.325 184.735C167.695 185.375 170.135 183.972 170.775 181.601L164.982 180.038ZM166.078 181.944C165.249 181.72 164.758 180.867 164.982 180.038L170.775 181.601C171.414 179.231 170.011 176.791 167.641 176.151L166.078 181.944ZM88.0987 154.687C85.7283 154.048 83.2883 155.451 82.6486 157.821L88.4414 159.384C88.2178 160.213 87.3644 160.704 86.5355 160.48L88.0987 154.687ZM82.7699 174.435L162.312 195.899L163.875 190.106L84.3331 168.642L82.7699 174.435ZM163.122 192.897L83.5799 171.433L82.0168 177.226L161.559 198.69L163.122 192.897ZM83.5799 171.433C84.4089 171.657 84.8995 172.51 84.6759 173.339L78.8831 171.776C78.2434 174.146 79.6465 176.586 82.0168 177.226L83.5799 171.433ZM161.216 193.993C161.44 193.164 162.293 192.673 163.122 192.897L161.559 198.69C163.929 199.329 166.369 197.926 167.009 195.556L161.216 193.993ZM162.312 195.899C161.483 195.675 160.993 194.822 161.216 193.993L167.009 195.556C167.649 193.186 166.246 190.746 163.875 190.106L162.312 195.899ZM84.3331 168.642C81.9627 168.002 79.5227 169.406 78.8831 171.776L84.6759 173.339C84.4522 174.168 83.5989 174.659 82.7699 174.435L84.3331 168.642Z" fill="url(#paint9_linear_1_129)" mask="url(#path-2-outside-1_1_129)"/>
<defs>
<linearGradient id="paint0_linear_1_129" x1="157.268" y1="53.6983" x2="113.587" y2="215.574" gradientUnits="userSpaceOnUse">
<stop stop-color="#4285F4"/>
<stop offset="0.364" stop-color="#34A853"/>
<stop offset="0.644" stop-color="#FBBC05"/>
<stop offset="1" stop-color="#EA4335"/>
</linearGradient>
<linearGradient id="paint1_linear_1_129" x1="157.268" y1="53.6983" x2="113.587" y2="215.574" gradientUnits="userSpaceOnUse">
<stop stop-color="#4285F4"/>
<stop offset="0.364" stop-color="#34A853"/>
<stop offset="0.644" stop-color="#FBBC05"/>
<stop offset="1" stop-color="#EA4335"/>
</linearGradient>
<linearGradient id="paint2_linear_1_129" x1="157.268" y1="53.6983" x2="113.587" y2="215.574" gradientUnits="userSpaceOnUse">
<stop stop-color="#4285F4"/>
<stop offset="0.364" stop-color="#34A853"/>
<stop offset="0.644" stop-color="#FBBC05"/>
<stop offset="1" stop-color="#EA4335"/>
</linearGradient>
<linearGradient id="paint3_linear_1_129" x1="157.268" y1="53.6983" x2="113.587" y2="215.574" gradientUnits="userSpaceOnUse">
<stop stop-color="#4285F4"/>
<stop offset="0.364" stop-color="#34A853"/>
<stop offset="0.644" stop-color="#FBBC05"/>
<stop offset="1" stop-color="#EA4335"/>
</linearGradient>
<linearGradient id="paint4_linear_1_129" x1="157.268" y1="53.6983" x2="113.587" y2="215.574" gradientUnits="userSpaceOnUse">
<stop stop-color="#4285F4"/>
<stop offset="0.364" stop-color="#34A853"/>
<stop offset="0.644" stop-color="#FBBC05"/>
<stop offset="1" stop-color="#EA4335"/>
</linearGradient>
<linearGradient id="paint5_linear_1_129" x1="157.268" y1="53.6983" x2="113.587" y2="215.574" gradientUnits="userSpaceOnUse">
<stop stop-color="#4285F4"/>
<stop offset="0.364" stop-color="#34A853"/>
<stop offset="0.644" stop-color="#FBBC05"/>
<stop offset="1" stop-color="#EA4335"/>
</linearGradient>
<linearGradient id="paint6_linear_1_129" x1="157.268" y1="53.6983" x2="113.587" y2="215.574" gradientUnits="userSpaceOnUse">
<stop stop-color="#4285F4"/>
<stop offset="0.364" stop-color="#34A853"/>
<stop offset="0.644" stop-color="#FBBC05"/>
<stop offset="1" stop-color="#EA4335"/>
</linearGradient>
<linearGradient id="paint7_linear_1_129" x1="157.268" y1="53.6983" x2="113.587" y2="215.574" gradientUnits="userSpaceOnUse">
<stop stop-color="#4285F4"/>
<stop offset="0.364" stop-color="#34A853"/>
<stop offset="0.644" stop-color="#FBBC05"/>
<stop offset="1" stop-color="#EA4335"/>
</linearGradient>
<linearGradient id="paint8_linear_1_129" x1="157.268" y1="53.6983" x2="113.587" y2="215.574" gradientUnits="userSpaceOnUse">
<stop stop-color="#4285F4"/>
<stop offset="0.364" stop-color="#34A853"/>
<stop offset="0.644" stop-color="#FBBC05"/>
<stop offset="1" stop-color="#EA4335"/>
</linearGradient>
<linearGradient id="paint9_linear_1_129" x1="157.268" y1="53.6983" x2="113.587" y2="215.574" gradientUnits="userSpaceOnUse">
<stop stop-color="#4285F4"/>
<stop offset="0.364" stop-color="#34A853"/>
<stop offset="0.644" stop-color="#FBBC05"/>
<stop offset="1" stop-color="#EA4335"/>
</linearGradient>
</defs>
</svg>
