<svg width="713" height="232" viewBox="0 0 713 232" fill="none" xmlns="http://www.w3.org/2000/svg">
<path d="M45.6061 184L75.0781 67.073H100.866L130.498 184H109.996L103.589 155.649H72.5153L66.1083 184H45.6061ZM76.1993 139.311H99.905L92.8574 107.917C91.6828 102.685 90.6684 97.9866 89.8141 93.8221C88.9598 89.5508 88.3725 86.4541 88.0522 84.532C87.7318 86.4541 87.1445 89.5508 86.2903 93.8221C85.436 97.9866 84.4216 102.632 83.247 107.757L76.1993 139.311ZM340.299 184V165.9H370.411V114.004H343.502V95.9043H390.433V165.9H417.502V184H340.299ZM379.061 81.1683C375.003 81.1683 371.799 80.1539 369.45 78.125C367.101 75.9894 365.926 73.1596 365.926 69.6358C365.926 66.112 367.101 63.3356 369.45 61.3068C371.799 59.1711 375.003 58.1033 379.061 58.1033C383.118 58.1033 386.322 59.1711 388.671 61.3068C391.02 63.3356 392.195 66.112 392.195 69.6358C392.195 73.1596 391.02 75.9894 388.671 78.125C386.322 80.1539 383.118 81.1683 379.061 81.1683Z" fill="#4285F4"/>
<path d="M151.579 184V95.9043H171.12V113.043C172.188 107.277 174.804 102.738 178.968 99.4282C183.24 96.0111 188.739 94.3026 195.466 94.3026C204.436 94.3026 211.43 97.1857 216.449 102.952C221.468 108.718 223.977 116.78 223.977 127.138V135.467H203.956V128.099C203.956 122.76 202.567 118.702 199.791 115.926C197.015 113.043 193.064 111.601 187.938 111.601C182.599 111.601 178.541 113.203 175.765 116.407C172.989 119.61 171.6 124.148 171.6 130.021V184H151.579ZM558.49 185.602C549.521 185.602 542.42 183.092 537.187 178.074C532.062 172.948 529.499 166.274 529.499 158.052C529.499 149.509 532.436 142.729 538.309 137.71C544.182 132.584 552.244 130.021 562.495 130.021H583.958V123.775C583.958 114.912 578.779 110.48 568.421 110.48C563.723 110.48 559.985 111.388 557.209 113.203C554.433 115.018 552.884 117.581 552.564 120.891H533.343C533.77 112.99 537.081 106.583 543.274 101.671C549.574 96.7586 558.01 94.3026 568.581 94.3026C579.794 94.3026 588.496 96.9188 594.69 102.151C600.883 107.383 603.98 114.751 603.98 124.255V184H584.439V167.502C583.691 173.162 581.022 177.593 576.43 180.797C571.838 184 565.858 185.602 558.49 185.602ZM564.897 169.264C570.77 169.264 575.416 167.822 578.833 164.939C582.25 162.056 583.958 158.212 583.958 153.407V142.995H563.456C559.078 142.995 555.607 144.223 553.045 146.679C550.482 149.135 549.2 152.286 549.2 156.13C549.2 160.081 550.535 163.284 553.205 165.74C555.981 168.089 559.879 169.264 564.897 169.264Z" fill="#EA4335"/>
<path d="M288.945 184C280.723 184 274.156 181.651 269.244 176.952C264.439 172.147 262.036 165.687 262.036 157.571V114.004H237.69V95.9043H262.036V71.0774H282.218V95.9043H317.296V114.004H282.218V157.091C282.218 159.654 282.912 161.789 284.3 163.498C285.795 165.099 287.824 165.9 290.387 165.9H316.495V184H288.945ZM660.619 185.442C650.154 185.442 641.879 183.092 635.792 178.394C629.705 173.589 626.662 167.128 626.662 159.013H646.363C646.363 162.43 647.591 165.046 650.047 166.861C652.61 168.677 656.134 169.584 660.619 169.584H667.667C672.472 169.584 676.156 168.677 678.719 166.861C681.388 165.046 682.723 162.43 682.723 159.013C682.723 155.809 681.815 153.46 680 151.965C678.185 150.363 675.408 149.296 671.671 148.762L649.727 145.879C642.679 144.918 637.234 142.195 633.389 137.71C629.652 133.225 627.783 127.405 627.783 120.251C627.783 111.922 630.56 105.568 636.112 101.19C641.665 96.7052 649.674 94.4628 660.138 94.4628H667.506C677.33 94.4628 685.232 96.7052 691.212 101.19C697.192 105.675 700.289 111.655 700.502 119.13H680.641C680.534 116.353 679.306 114.164 676.957 112.562C674.607 110.854 671.457 110 667.506 110H660.138C655.867 110 652.61 110.907 650.368 112.723C648.125 114.431 647.004 116.78 647.004 119.77C647.004 122.44 647.805 124.415 649.407 125.697C651.115 126.978 653.571 127.779 656.775 128.099L677.437 130.982C685.553 131.943 691.639 134.827 695.697 139.632C699.862 144.33 701.944 150.684 701.944 158.693C701.944 167.235 699.007 173.856 693.134 178.554C687.368 183.146 678.879 185.442 667.667 185.442H660.619Z" fill="#FBBC05"/>
<path d="M448.514 212.831V196.173H473.341C478.039 196.173 481.67 194.892 484.232 192.329C486.795 189.873 488.077 186.509 488.077 182.238V176.952L488.397 163.177C486.582 168.089 483.645 171.934 479.587 174.71C475.636 177.379 470.778 178.714 465.011 178.714C456.042 178.714 448.887 175.724 443.548 169.745C438.316 163.658 435.7 155.436 435.7 145.078V127.939C435.7 117.688 438.316 109.519 443.548 103.433C448.887 97.3459 456.042 94.3026 465.011 94.3026C470.778 94.3026 475.636 95.6908 479.587 98.4671C483.645 101.137 486.582 104.981 488.397 110V95.9043H507.938V182.719C507.938 192.009 504.841 199.323 498.648 204.662C492.561 210.108 484.232 212.831 473.661 212.831H448.514ZM471.739 161.576C476.864 161.576 480.815 160.081 483.592 157.091C486.475 153.994 487.916 149.723 487.916 144.277V128.9C487.916 123.454 486.475 119.236 483.592 116.246C480.815 113.15 476.864 111.601 471.739 111.601C466.613 111.601 462.662 113.096 459.886 116.086C457.11 118.969 455.721 123.027 455.721 128.259V144.918C455.721 150.15 457.11 154.261 459.886 157.251C462.662 160.134 466.613 161.576 471.739 161.576Z" fill="#34A853"/>
<mask id="path-2-outside-1_1_120" maskUnits="userSpaceOnUse" x="-2.46445" y="-2.45198" width="136.208" height="153.126" fill="black">
<rect fill="white" x="-2.46445" y="-2.45198" width="136.208" height="153.126"/>
<path fill-rule="evenodd" clip-rule="evenodd" d="M47.4898 3.96026L116.678 22.6301C124.783 24.8173 129.581 33.1611 127.393 41.2665L119.906 69.0135L117.81 68.4478L125.297 40.7008C127.172 33.7532 123.059 26.6014 116.112 24.7267L46.924 6.05686C39.9765 4.18212 32.8247 8.29442 30.9499 15.2419L6.05686 107.492C4.18213 114.44 8.29442 121.592 15.2419 123.466L44.5414 131.373L43.9757 133.469L14.6762 125.563C6.57075 123.376 1.77307 115.032 3.96026 106.927L28.8533 14.6762C31.0405 6.57075 39.3844 1.77307 47.4898 3.96026ZM50.7647 108.31L50.1989 110.407L26.141 103.915C25.562 103.759 25.2193 103.163 25.3755 102.584C25.5318 102.005 26.1277 101.662 26.7067 101.818L50.7647 108.31ZM53.5934 97.827L53.0277 99.9236L28.9697 93.4318C28.3908 93.2755 28.0481 92.6795 28.2043 92.1006C28.3605 91.5216 28.9565 91.1789 29.5355 91.3352L53.5934 97.827ZM56.4222 87.344L55.8564 89.4406L31.7985 82.9488C31.2195 82.7925 30.8768 82.1966 31.033 81.6176C31.1893 81.0386 31.7853 80.6959 32.3642 80.8522L56.4222 87.344ZM59.251 76.8611L58.6852 78.9576L34.6272 72.4658C34.0483 72.3096 33.7056 71.7136 33.8618 71.1346C34.018 70.5556 34.614 70.213 35.193 70.3692L59.251 76.8611ZM62.0797 66.3781L61.514 68.4747L37.456 61.9828C36.877 61.8266 36.5343 61.2306 36.6906 60.6516C36.8468 60.0727 37.4428 59.73 38.0217 59.8862L62.0797 66.3781ZM64.9085 55.8951L64.3427 57.9917L40.2847 51.4998C39.7058 51.3436 39.3631 50.7476 39.5193 50.1686C39.6755 49.5897 40.2715 49.247 40.8505 49.4032L64.9085 55.8951ZM45.1768 29.2026C45.3331 28.6237 45.9291 28.281 46.508 28.4372L106.261 44.5611C106.84 44.7174 107.183 45.3134 107.026 45.8923C106.87 46.4713 106.274 46.814 105.695 46.6577L45.9423 30.5338C45.3633 30.3776 45.0206 29.7816 45.1768 29.2026ZM43.6793 38.9202C43.1003 38.764 42.5043 39.1067 42.3481 39.6856C42.1918 40.2646 42.5345 40.8606 43.1135 41.0168L102.867 57.1407C103.446 57.297 104.041 56.9543 104.198 56.3753C104.354 55.7963 104.011 55.2004 103.432 55.0441L43.6793 38.9202Z"/>
</mask>
<path fill-rule="evenodd" clip-rule="evenodd" d="M47.4898 3.96026L116.678 22.6301C124.783 24.8173 129.581 33.1611 127.393 41.2665L119.906 69.0135L117.81 68.4478L125.297 40.7008C127.172 33.7532 123.059 26.6014 116.112 24.7267L46.924 6.05686C39.9765 4.18212 32.8247 8.29442 30.9499 15.2419L6.05686 107.492C4.18213 114.44 8.29442 121.592 15.2419 123.466L44.5414 131.373L43.9757 133.469L14.6762 125.563C6.57075 123.376 1.77307 115.032 3.96026 106.927L28.8533 14.6762C31.0405 6.57075 39.3844 1.77307 47.4898 3.96026ZM50.7647 108.31L50.1989 110.407L26.141 103.915C25.562 103.759 25.2193 103.163 25.3755 102.584C25.5318 102.005 26.1277 101.662 26.7067 101.818L50.7647 108.31ZM53.5934 97.827L53.0277 99.9236L28.9697 93.4318C28.3908 93.2755 28.0481 92.6795 28.2043 92.1006C28.3605 91.5216 28.9565 91.1789 29.5355 91.3352L53.5934 97.827ZM56.4222 87.344L55.8564 89.4406L31.7985 82.9488C31.2195 82.7925 30.8768 82.1966 31.033 81.6176C31.1893 81.0386 31.7853 80.6959 32.3642 80.8522L56.4222 87.344ZM59.251 76.8611L58.6852 78.9576L34.6272 72.4658C34.0483 72.3096 33.7056 71.7136 33.8618 71.1346C34.018 70.5556 34.614 70.213 35.193 70.3692L59.251 76.8611ZM62.0797 66.3781L61.514 68.4747L37.456 61.9828C36.877 61.8266 36.5343 61.2306 36.6906 60.6516C36.8468 60.0727 37.4428 59.73 38.0217 59.8862L62.0797 66.3781ZM64.9085 55.8951L64.3427 57.9917L40.2847 51.4998C39.7058 51.3436 39.3631 50.7476 39.5193 50.1686C39.6755 49.5897 40.2715 49.247 40.8505 49.4032L64.9085 55.8951ZM45.1768 29.2026C45.3331 28.6237 45.9291 28.281 46.508 28.4372L106.261 44.5611C106.84 44.7174 107.183 45.3134 107.026 45.8923C106.87 46.4713 106.274 46.814 105.695 46.6577L45.9423 30.5338C45.3633 30.3776 45.0206 29.7816 45.1768 29.2026ZM43.6793 38.9202C43.1003 38.764 42.5043 39.1067 42.3481 39.6856C42.1918 40.2646 42.5345 40.8606 43.1135 41.0168L102.867 57.1407C103.446 57.297 104.041 56.9543 104.198 56.3753C104.354 55.7963 104.011 55.2004 103.432 55.0441L43.6793 38.9202Z" fill="url(#paint0_linear_1_120)"/>
<path d="M127.393 41.2665L128.442 41.5494L127.393 41.2665ZM119.906 69.0135L119.623 70.0618L120.672 70.3447L120.954 69.2964L119.906 69.0135ZM117.81 68.4478L116.761 68.1649L116.478 69.2132L117.527 69.4961L117.81 68.4478ZM125.297 40.7008L126.345 40.9836L125.297 40.7008ZM6.05686 107.492L5.00856 107.209L6.05686 107.492ZM15.2419 123.466L15.5248 122.418L15.2419 123.466ZM44.5414 131.373L45.5897 131.655L45.8726 130.607L44.8243 130.324L44.5414 131.373ZM43.9757 133.469L43.6928 134.517L44.7411 134.8L45.024 133.752L43.9757 133.469ZM14.6762 125.563L14.9591 124.515L14.6762 125.563ZM3.96026 106.927L2.91196 106.644L3.96026 106.927ZM50.1989 110.407L49.916 111.455L50.9643 111.738L51.2472 110.689L50.1989 110.407ZM50.7647 108.31L51.813 108.593L52.0959 107.545L51.0476 107.262L50.7647 108.31ZM53.0277 99.9236L52.7448 100.972L53.7931 101.255L54.076 100.207L53.0277 99.9236ZM53.5934 97.827L54.6417 98.1099L54.9246 97.0616L53.8763 96.7787L53.5934 97.827ZM55.8564 89.4406L55.5736 90.4889L56.6219 90.7718L56.9047 89.7235L55.8564 89.4406ZM56.4222 87.344L57.4705 87.6269L57.7534 86.5786L56.7051 86.2957L56.4222 87.344ZM58.6852 78.9576L58.4023 80.0059L59.4506 80.2888L59.7335 79.2405L58.6852 78.9576ZM59.251 76.8611L60.2993 77.1439L60.5821 76.0956L59.5338 75.8128L59.251 76.8611ZM61.514 68.4747L61.2311 69.523L62.2794 69.8058L62.5623 68.7575L61.514 68.4747ZM62.0797 66.3781L63.128 66.6609L63.4109 65.6126L62.3626 65.3298L62.0797 66.3781ZM64.3427 57.9917L64.0598 59.04L65.1081 59.3228L65.391 58.2745L64.3427 57.9917ZM64.9085 55.8951L65.9568 56.1779L66.2396 55.1296L65.1913 54.8468L64.9085 55.8951ZM105.695 46.6577L105.412 47.706L105.695 46.6577ZM103.432 55.0441L103.149 56.0924L103.432 55.0441ZM116.96 21.5818L47.7727 2.91196L47.2069 5.00856L116.395 23.6784L116.96 21.5818ZM128.442 41.5494C130.785 32.865 125.645 23.9252 116.96 21.5818L116.395 23.6784C123.921 25.7093 128.376 33.4572 126.345 40.9836L128.442 41.5494ZM120.954 69.2964L128.442 41.5494L126.345 40.9836L118.858 68.7306L120.954 69.2964ZM117.527 69.4961L119.623 70.0618L120.189 67.9652L118.092 67.3995L117.527 69.4961ZM124.249 40.4179L116.761 68.1649L118.858 68.7306L126.345 40.9836L124.249 40.4179ZM115.829 25.775C122.197 27.4935 125.967 34.0493 124.249 40.4179L126.345 40.9836C128.376 33.4572 123.921 25.7093 116.395 23.6784L115.829 25.775ZM46.6412 7.10516L115.829 25.775L116.395 23.6784L47.2069 5.00856L46.6412 7.10516ZM31.9982 15.5248C33.7167 9.15626 40.2726 5.38665 46.6412 7.10516L47.2069 5.00856C39.6804 2.9776 31.9326 7.43259 29.9016 14.9591L31.9982 15.5248ZM7.10516 107.775L31.9982 15.5248L29.9016 14.9591L5.00856 107.209L7.10516 107.775ZM15.5248 122.418C9.15626 120.7 5.38665 114.144 7.10516 107.775L5.00856 107.209C2.9776 114.736 7.43259 122.484 14.9591 124.515L15.5248 122.418ZM44.8243 130.324L15.5248 122.418L14.9591 124.515L44.2585 132.421L44.8243 130.324ZM45.024 133.752L45.5897 131.655L43.4931 131.09L42.9274 133.186L45.024 133.752ZM14.3933 126.611L43.6928 134.517L44.2585 132.421L14.9591 124.515L14.3933 126.611ZM2.91196 106.644C0.568543 115.328 5.70892 124.268 14.3933 126.611L14.9591 124.515C7.43259 122.484 2.9776 114.736 5.00856 107.209L2.91196 106.644ZM27.805 14.3933L2.91196 106.644L5.00856 107.209L29.9016 14.9591L27.805 14.3933ZM47.7727 2.91196C39.0883 0.568543 30.1485 5.70892 27.805 14.3933L29.9016 14.9591C31.9326 7.43259 39.6804 2.9776 47.2069 5.00856L47.7727 2.91196ZM51.2472 110.689L51.813 108.593L49.7164 108.027L49.1506 110.124L51.2472 110.689ZM50.4818 109.358L26.4238 102.866L25.8581 104.963L49.916 111.455L50.4818 109.358ZM26.4238 102.866L26.4238 102.866L24.3272 102.301C24.0148 103.459 24.7002 104.651 25.8581 104.963L26.4238 102.866ZM26.4238 102.866L26.4238 102.866L26.9896 100.77C25.8317 100.457 24.6397 101.143 24.3272 102.301L26.4238 102.866ZM26.4238 102.866L50.4818 109.358L51.0476 107.262L26.9896 100.77L26.4238 102.866ZM54.076 100.207L54.6417 98.1099L52.5451 97.5441L51.9794 99.6408L54.076 100.207ZM28.6868 94.4801L52.7448 100.972L53.3106 98.8753L29.2526 92.3835L28.6868 94.4801ZM27.156 91.8177C26.8435 92.9756 27.5289 94.1676 28.6868 94.4801L29.2526 92.3835L29.2526 92.3835L27.156 91.8177ZM29.8183 90.2869C28.6604 89.9744 27.4684 90.6598 27.156 91.8177L29.2526 92.3835L29.2526 92.3835L29.8183 90.2869ZM53.8763 96.7787L29.8183 90.2869L29.2526 92.3835L53.3106 98.8753L53.8763 96.7787ZM56.9047 89.7235L57.4705 87.6269L55.3739 87.0612L54.8081 89.1578L56.9047 89.7235ZM56.1393 88.3923L32.0813 81.9005L31.5156 83.9971L55.5736 90.4889L56.1393 88.3923ZM32.0813 81.9005L32.0813 81.9005L29.9847 81.3347C29.6723 82.4926 30.3577 83.6846 31.5156 83.9971L32.0813 81.9005ZM32.0813 81.9005L32.0813 81.9005L32.6471 79.8039C31.4892 79.4914 30.2972 80.1768 29.9847 81.3347L32.0813 81.9005ZM32.0813 81.9005L56.1393 88.3923L56.7051 86.2957L32.6471 79.8039L32.0813 81.9005ZM59.7335 79.2405L60.2993 77.1439L58.2027 76.5782L57.6369 78.6748L59.7335 79.2405ZM34.3444 73.5141L58.4023 80.0059L58.9681 77.9093L34.9101 71.4175L34.3444 73.5141ZM32.8135 70.8517C32.501 72.0096 33.1864 73.2016 34.3444 73.5141L34.9101 71.4175L34.9101 71.4175L32.8135 70.8517ZM35.4759 69.3209C34.3179 69.0084 33.126 69.6938 32.8135 70.8517L34.9101 71.4175L34.9101 71.4175L35.4759 69.3209ZM59.5338 75.8128L35.4759 69.3209L34.9101 71.4175L58.9681 77.9094L59.5338 75.8128ZM62.5623 68.7575L63.128 66.6609L61.0314 66.0952L60.4657 68.1918L62.5623 68.7575ZM61.7968 67.4264L37.7389 60.9345L37.1731 63.0311L61.2311 69.523L61.7968 67.4264ZM37.7389 60.9345L37.7389 60.9345L35.6423 60.3687C35.3298 61.5267 36.0152 62.7186 37.1731 63.0311L37.7389 60.9345ZM37.7389 60.9345L37.7389 60.9345L38.3046 58.8379C37.1467 58.5254 35.9547 59.2108 35.6423 60.3687L37.7389 60.9345ZM37.7389 60.9345L61.7968 67.4264L62.3626 65.3298L38.3046 58.8379L37.7389 60.9345ZM65.391 58.2745L65.9568 56.1779L63.8602 55.6122L63.2944 57.7088L65.391 58.2745ZM40.0019 52.5481L64.0598 59.04L64.6256 56.9434L40.5676 50.4515L40.0019 52.5481ZM38.471 49.8857C38.1586 51.0437 38.844 52.2356 40.0019 52.5481L40.5676 50.4515L40.5676 50.4515L38.471 49.8857ZM41.1334 48.3549C39.9754 48.0424 38.7835 48.7278 38.471 49.8857L40.5676 50.4515L40.5676 50.4515L41.1334 48.3549ZM65.1913 54.8468L41.1334 48.3549L40.5676 50.4515L64.6256 56.9434L65.1913 54.8468ZM46.7909 27.3889C45.633 27.0765 44.441 27.7618 44.1285 28.9198L46.2251 29.4855L46.2251 29.4855L46.7909 27.3889ZM106.544 43.5128L46.7909 27.3889L46.2251 29.4855L105.978 45.6094L106.544 43.5128ZM108.075 46.1752C108.387 45.0173 107.702 43.8253 106.544 43.5128L105.978 45.6094L105.978 45.6094L108.075 46.1752ZM105.412 47.706C106.57 48.0185 107.762 47.3331 108.075 46.1752L105.978 45.6094L105.978 45.6094L105.412 47.706ZM45.6594 31.5821L105.412 47.706L105.978 45.6094L46.2251 29.4855L45.6594 31.5821ZM44.1285 28.9198C43.8161 30.0777 44.5015 31.2697 45.6594 31.5821L46.2251 29.4855L46.2251 29.4855L44.1285 28.9198ZM43.3964 39.9685L43.3964 39.9685L43.9621 37.8719C42.8042 37.5595 41.6122 38.2448 41.2998 39.4028L43.3964 39.9685ZM43.3964 39.9685L43.3964 39.9685L41.2998 39.4028C40.9873 40.5607 41.6727 41.7527 42.8306 42.0651L43.3964 39.9685ZM103.149 56.0924L43.3964 39.9685L42.8306 42.0651L102.584 58.189L103.149 56.0924ZM103.149 56.0924L103.149 56.0924L102.584 58.189C103.742 58.5015 104.934 57.8161 105.246 56.6582L103.149 56.0924ZM103.149 56.0924L103.149 56.0924L105.246 56.6582C105.558 55.5003 104.873 54.3083 103.715 53.9958L103.149 56.0924ZM43.3964 39.9685L103.149 56.0924L103.715 53.9958L43.9621 37.8719L43.3964 39.9685Z" fill="url(#paint1_linear_1_120)" mask="url(#path-2-outside-1_1_120)"/>
<defs>
<linearGradient id="paint0_linear_1_120" x1="82.0837" y1="13.2952" x2="49.2701" y2="134.898" gradientUnits="userSpaceOnUse">
<stop stop-color="#4285F4"/>
<stop offset="0.364" stop-color="#34A853"/>
<stop offset="0.644" stop-color="#FBBC05"/>
<stop offset="1" stop-color="#EA4335"/>
</linearGradient>
<linearGradient id="paint1_linear_1_120" x1="82.0837" y1="13.2952" x2="49.2701" y2="134.898" gradientUnits="userSpaceOnUse">
<stop stop-color="#4285F4"/>
<stop offset="0.364" stop-color="#34A853"/>
<stop offset="0.644" stop-color="#FBBC05"/>
<stop offset="1" stop-color="#EA4335"/>
</linearGradient>
</defs>
</svg>
